<?xml version='1.0' encoding='utf-8'?>
<svg xmlns="http://www.w3.org/2000/svg" xmlns:xlink="http://www.w3.org/1999/xlink" enable-background="new 0 0 40.7 43.35" version="1.1" viewBox="0 0 40.7 43.35">
<symbol id="av" viewBox="-0.002 -43.3 40.725 43.286">
		<g clip-rule="evenodd" fill-rule="evenodd">
				<linearGradient id="ai" x1="-3344.5" x2="-3327.1" y1="-7529.7" y2="-7529.7" gradientTransform="matrix(.7455 -.6665 .6665 .7455 7525.1 3367.4)" gradientUnits="userSpaceOnUse">
				<stop stop-color="#D82624" offset="0"/>
				<stop stop-color="#7A1614" offset="1"/>
			</linearGradient>
			<path d="m34.75-5.8l0.45-0.25-0.15-0.15 1.85-2.55-8.2-9.15-0.6-1.25c-0.367-1.1-0.434-2.217-0.2-3.35 0.267-1.233 0.233-2.35-0.1-3.35-0.3-0.8-0.833-1.617-1.6-2.45l-12.3-13.8c-0.167-0.333-0.483-0.617-0.95-0.85-0.867-0.466-1.983-0.466-3.35 0-1.9 0.667-3.617 1.767-5.15 3.3-1.733 1.4-3.017 2.983-3.85 4.75-0.633 1.3-0.767 2.417-0.4 3.35l0.75 1 12.35 13.8c0.767 0.867 1.534 1.467 2.3 1.8 0.933 0.467 2.05 0.633 3.35 0.5 1.133-0.133 2.216 0.05 3.25 0.55 0.533 0.233 0.933 0.483 1.2 0.75l8.2 9.15 2.7-1.55 0.15 0.15 0.3-0.4z" fill="url(#ai)"/>
			<path d="m27.35-19.45c-0.333-0.4-1.35 0.133-3.05 1.6-1.633 1.5-2.283 2.45-1.95 2.85 0.167 0.167 0.533 0.083 1.1-0.25 0.6-0.333 1.25-0.8 1.95-1.4 0.667-0.6 1.2-1.184 1.6-1.75 0.4-0.567 0.517-0.917 0.35-1.05z" fill="#C9200A"/>
			<path d="m22.2-13.9c0.533 0.233 0.933 0.483 1.2 0.75l8.2 9.15 0.65-0.35c-5.733-6.667-8.833-10.15-9.3-10.45-0.6-0.367-0.967-0.567-1.1-0.6-0.367-0.1-1.283-0.133-2.75-0.1-1.033 0.033-1.967-0.133-2.8-0.5-0.566-0.233-1-0.517-1.3-0.85l-13.7-15.35-0.5-1c-0.2-0.9 0.034-1.983 0.7-3.25l-0.9 1.55c-0.633 1.3-0.767 2.417-0.4 3.35l0.75 1 12.35 13.8c0.767 0.867 1.534 1.467 2.3 1.8 0.933 0.467 2.05 0.633 3.35 0.5 1.133-0.133 2.217 0.05 3.25 0.55z" fill="#940000"/>
				<linearGradient id="an" x1="-3342" x2="-3338.2" y1="-7530.5" y2="-7530.5" gradientTransform="matrix(.7459 -.666 .666 .7459 7517.5 3367)" gradientUnits="userSpaceOnUse">
				<stop stop-color="#FF6966" offset="0"/>
				<stop stop-color="#B7201E" offset="1"/>
			</linearGradient>
			<path d="m15.25-18c0.567 0.633 1.35 1.033 2.35 1.2 1.066 0.233 1.933 0.083 2.6-0.45 0.433-0.333 0.417-0.667-0.05-1-1.066-0.7-1.8-1.283-2.2-1.75l-14.55-16.25c-0.467 0.4-0.867 0.9-1.2 1.5-0.2 0.367-0.317 0.767-0.35 1.2v0.55l13.4 15z" fill="url(#an)"/>
				<linearGradient id="ao" x1="-3336" x2="-3333.5" y1="-7482.1" y2="-7482.1" gradientTransform="matrix(.7474 -.6644 .6644 .7474 7492 3365.5)" gradientUnits="userSpaceOnUse">
				<stop stop-color="#D8413F" offset="0"/>
				<stop stop-color="#A71E1C" offset="1"/>
			</linearGradient>
			<path d="m31.1-6.8c0.3-0.7 0.816-1.317 1.55-1.85l-6.2-6.95c-0.8 0.6-1.233 1.317-1.3 2.15l5.95 6.65z" fill="url(#ao)"/>
				<linearGradient id="ap" x1="-3329.2" x2="-3326.8" y1="-7504.1" y2="-7504.1" gradientTransform="matrix(.7474 -.6644 .6644 .7474 7492 3365.5)" gradientUnits="userSpaceOnUse">
				<stop stop-color="#B6201E" offset="0"/>
				<stop stop-color="#891917" offset="1"/>
			</linearGradient>
			<path d="m25.15-21.35c0.367 0.434 0.8 0.233 1.3-0.6l0.15-0.4c0.1-0.4 0.117-0.867 0.05-1.4-0.066-1.233-0.583-2.333-1.55-3.3l-13.25-14.8-0.5 0.1c-0.2 0.033-0.434 0.15-0.7 0.35l-0.35 0.25c9.067 9.867 13.883 15.25 14.45 16.15 0.567 0.867 0.7 2.083 0.4 3.65z" fill="url(#ap)"/>
			<path d="m21.1-21.35c-0.167-0.167-0.367-0.267-0.6-0.3-0.267 0-0.483 0.083-0.65 0.25-0.2 0.133-0.3 0.333-0.3 0.6-0.033 0.267 0.034 0.483 0.2 0.65 0.433 0.433 0.867 0.45 1.3 0.05 0.167-0.167 0.267-0.367 0.3-0.6 0-0.267-0.083-0.483-0.25-0.65z" fill="#E3240B"/>
			<path d="m22.9-20.5c-0.167-0.2-0.35-0.2-0.55 0-0.167 0.167-0.167 0.333 0 0.5 0.133 0.233 0.3 0.25 0.5 0.05s0.217-0.383 0.05-0.55z" fill="#E3240B"/>
			<path d="m22-17.65c-0.167-0.167-0.35-0.184-0.55-0.05-0.167 0.167-0.167 0.35 0 0.55 0.167 0.167 0.333 0.167 0.5 0 0.233-0.133 0.25-0.3 0.05-0.5z" fill="#E3240B"/>
			<path d="m23.7-24.55c-0.167-0.167-0.333-0.167-0.5 0-0.133 0.133-0.133 0.283 0 0.45 0.066 0.067 0.15 0.1 0.25 0.1s0.167-0.033 0.2-0.1c0.167-0.1 0.183-0.25 0.05-0.45z" fill="#E3240B"/>
			<path d="m27.05-26.1c-0.233-0.333-0.483-0.4-0.75-0.2-0.233 0.167-0.2 0.433 0.1 0.8 0.1 0.133 0.233 0.217 0.4 0.25s0.284 0.017 0.35-0.05c0.233-0.233 0.2-0.5-0.1-0.8z" fill="#E3240B"/>
			<path d="m3.7-37.55c-0.233-0.3-0.517-0.317-0.85-0.05-0.3 0.3-0.317 0.6-0.05 0.9 0.267 0.267 0.55 0.284 0.85 0.05 0.333-0.333 0.35-0.633 0.05-0.9z" fill="#E3240B"/>
			<path d="m9.2-41.15c-0.133-0.2-0.3-0.2-0.5 0-0.167 0.167-0.184 0.35-0.05 0.55 0.2 0.167 0.383 0.167 0.55 0s0.167-0.35 0-0.55z" fill="#E3240B"/>
			<path d="m24.55-12.6l4.8-2.4c0.566-0.6 0.6-1.25 0.1-1.95l-1.05-1.55c-1.066 0.367-2.083 1.017-3.05 1.95-0.6 0.6-1.067 1.283-1.4 2.05l-0.35 0.95 0.95 0.95z" fill="#940000"/>
			<path d="m12.9-17.25c0.3 0.4 0.65 0.75 1.05 1.05 0.9-2.3 2.617-4.583 5.15-6.85 2.833-2.6 5.4-4.083 7.7-4.45l-1-1.3-11.7-13.05c-1.567 0-2.6 0.067-3.1 0.2-1.5 0.367-3.25 1.367-5.25 3-2.8 2.3-4.417 4.967-4.85 8l12 13.4z" fill="#940000"/>
				<linearGradient id="aq" x1="-3344.9" x2="-3327.6" y1="-7547.4" y2="-7547.4" gradientTransform="matrix(.745 -.667 .667 .745 7533.5 3367.9)" gradientUnits="userSpaceOnUse">
				<stop stop-color="#852800" offset="0"/>
				<stop stop-color="#6B1900" offset="1"/>
			</linearGradient>
			<path d="m14.35-15.75c0.9-2.233 2.617-4.517 5.15-6.85 2.8-2.5 5.367-3.983 7.7-4.45-0.2-0.367-0.534-0.784-1-1.25l-11.9-13.35c-2.533 0-5.267 1.316-8.2 3.95-2.833 2.534-4.434 5.05-4.8 7.55l12 13.4 1.05 1z" fill="url(#aq)"/>
				<linearGradient id="ar" x1="-3344.9" x2="-3327.6" y1="-7548.4" y2="-7548.4" gradientTransform="matrix(.745 -.667 .667 .745 7533.5 3367.9)" gradientUnits="userSpaceOnUse">
				<stop stop-color="#FF8229" offset="0"/>
				<stop stop-color="#C43F16" offset="1"/>
			</linearGradient>
			<path d="m12.25-17.95h0.6l-0.4-1.15c-0.167-0.5-0.467-1.066-0.9-1.7l0.35 0.15c0.333 0.1 0.7 0.133 1.1 0.1 0.667-0.034 1.183 0.083 1.55 0.35l-0.65-2c-0.2-0.5-0.45-0.883-0.75-1.15 0.1 0.067 0.233 0.15 0.4 0.25 0.333 0.167 0.65 0.267 0.95 0.3 0.467 0 0.867 0.1 1.2 0.3l-0.25-0.55c-0.167-0.434-0.35-0.767-0.55-1l-0.45-0.5c0.5 0.133 0.85 0.25 1.05 0.35 0.2 0.067 0.433 0.083 0.7 0.05l-0.6-1.55c0.133 0.267 0.617 0.417 1.45 0.45 0.934 0.067 1.633 0.217 2.1 0.45l-0.4-1.95-0.25-0.7 0.35 0.2c0.3 0.167 0.683 0.25 1.15 0.25 0.733-0.033 1.25 0.033 1.55 0.2-0.133-0.633-0.3-1.017-0.5-1.15l-0.25-0.25 2 0.4v-0.45c0-0.367-0.066-0.667-0.2-0.9l-0.35-0.55 0.75 0.2 0.75 0.1-0.05-0.35c-0.026-0.181-0.076-0.323-0.15-0.425 0.294 0.295 0.594 0.57 0.9 0.825 0.433 0.3 0.883 0.55 1.35 0.75l-0.1-0.3-11.4-12.75c-2.533 0-5.267 1.316-8.2 3.95-2.833 2.534-4.434 5.05-4.8 7.55l10.95 12.2z" fill="url(#ar)"/>
				<linearGradient id="as" x1="-3340.1" x2="-3333" y1="-7529.5" y2="-7529.5" gradientTransform="matrix(.7447 -.6674 .6674 .7447 7539.1 3368.2)" gradientUnits="userSpaceOnUse">
				<stop stop-color="#FF8229" offset="0"/>
				<stop stop-color="#C43F16" offset="1"/>
			</linearGradient>
			<path d="m28.85-17.75c-0.833 0.2-1.817 0.783-2.95 1.75-1.2 1.1-1.883 2.217-2.05 3.35l6.05 6.8c0.367-0.9 1.117-1.867 2.25-2.9s2.167-1.65 3.1-1.85l-6.4-7.15z" fill="url(#as)"/>
			<path d="m33.25-5.25l3.7-3.5-1.55-1.7c-0.867 0.367-1.9 1.133-3.1 2.3-0.767 0.733-1.283 1.417-1.55 2.05l-0.15 0.7 0.8 0.95 1.85-0.8z" fill="#940000"/>
				<linearGradient id="at" x1="-3340.9" x2="-3331.6" y1="-7518.2" y2="-7518.2" gradientTransform="matrix(.7449 -.6672 .6672 .7449 7535.7 3368)" gradientUnits="userSpaceOnUse">
				<stop stop-color="#D82624" offset="0"/>
				<stop stop-color="#7A1614" offset="1"/>
			</linearGradient>
			<path d="m37.95-9.45c-0.3-0.333-0.9-0.333-1.8 0-0.9 0.367-1.833 0.983-2.8 1.85s-1.667 1.733-2.1 2.6c-0.467 0.833-0.55 1.433-0.25 1.8 0.333 0.333 0.95 0.317 1.85-0.05 0.867-0.333 1.783-0.933 2.75-1.8s1.683-1.733 2.15-2.6 0.533-1.467 0.2-1.8z" fill="url(#at)"/>
			<path d="m31.4-4.45c0.067-0.533 0.184-0.983 0.35-1.35-0.933 1.267-1.183 2.133-0.75 2.6 0.267 0.267 0.767 0.3 1.5 0.1-0.767-0.067-1.133-0.517-1.1-1.35z" fill="#940000"/>
				<linearGradient id="au" x1="-3341.6" x2="-3338.8" y1="-7554.2" y2="-7554.2" gradientTransform="matrix(.7428 -.6695 .6695 .7428 7571.1 3369.9)" gradientUnits="userSpaceOnUse">
				<stop stop-color="#FF6966" offset="0"/>
				<stop stop-color="#B7201E" offset="1"/>
			</linearGradient>
			<path d="m32.25-4.35c1.033-0.967 1.467-1.667 1.3-2.1s-0.566-0.267-1.2 0.5c-0.467 0.6-0.667 1.083-0.6 1.45 0.067 0.333 0.233 0.383 0.5 0.15z" fill="url(#au)"/>
				<linearGradient id="y" x1="-3339.6" x2="-3334.5" y1="-7529.1" y2="-7529.1" gradientTransform="matrix(.7447 -.6674 .6674 .7447 7538.4 3368.2)" gradientUnits="userSpaceOnUse">
				<stop stop-color="#FFD129" offset="0"/>
				<stop stop-color="#C47316" offset="1"/>
			</linearGradient>
			<path d="m30.95-9.1c0.667-0.467 0.9-1.217 0.7-2.25-0.167-0.8-0.517-1.55-1.05-2.25-0.767-1-1.517-1.633-2.25-1.9-0.967-0.367-1.833-0.1-2.6 0.8-0.567 0.7-0.783 1.4-0.65 2.1 0.133 0.6 0.583 1.3 1.35 2.1 1.733 1.8 3.233 2.267 4.5 1.4z" fill="url(#y)"/>
				<linearGradient id="z" x1="-3342.2" x2="-3332.8" y1="-7531.4" y2="-7531.4" gradientTransform="matrix(.7461 -.6659 .6659 .7461 7515.1 3366.8)" gradientUnits="userSpaceOnUse">
				<stop stop-color="#852800" offset="0"/>
				<stop stop-color="#6B1900" offset="1"/>
			</linearGradient>
			<path d="m10.85-27.8c-1.333-0.067-2.333-0.583-3-1.55-0.567-0.733-0.95-1.417-1.15-2.05-0.333 0.1-0.517 0.467-0.55 1.1-0.033 0.433-0.017 0.75 0.05 0.95l0.35 0.8-0.45-0.2c-0.333-0.2-0.55-0.4-0.65-0.6-0.434-0.6-0.75-1.283-0.95-2.05-0.2-0.733-0.183-1.333 0.05-1.8-0.633 0.667-0.767 1.567-0.4 2.7 0.434 1.533 1.233 2.5 2.4 2.9 0.633 0.2 1 0.45 1.1 0.75l0.05-0.45c0-0.245-0.034-0.47-0.1-0.675 0.594 0.791 1.277 1.3 2.05 1.525 0.633 0.2 1.45 0.25 2.45 0.15 0.833-0.1 1.4-0.017 1.7 0.25 0.367 0.3 0.617 0.583 0.75 0.85l0.1 0.3v-1.55c-0.133-1.233-0.517-2.367-1.15-3.4s-1.467-1.85-2.5-2.45c-0.5-0.3-0.95-0.5-1.35-0.6l2.1-0.4c0.6-0.034 1.017 0.183 1.25 0.65l-0.4-1.15c-0.367-0.833-0.817-1.45-1.35-1.85-0.767-0.567-1.667-0.817-2.7-0.75l-1.35 0.3c0.4-0.066 1.1 0.067 2.1 0.4 1 0.367 1.6 0.8 1.8 1.3-0.4 0.3-0.867 0.45-1.4 0.45-0.3 0.034-0.667 0.133-1.1 0.3l-0.5 0.25c0.467 0.233 1.283 0.9 2.45 2s1.9 2.233 2.2 3.4c-0.5 0.167-1.133 0.233-1.9 0.2z" fill="url(#z)"/>
				<linearGradient id="aa" x1="-3345.4" x2="-3328.2" y1="-7552.2" y2="-7552.2" gradientTransform="matrix(.7447 -.6674 .6674 .7447 7539.5 3368.2)" gradientUnits="userSpaceOnUse">
				<stop stop-color="#852800" offset="0"/>
				<stop stop-color="#6B1900" offset="1"/>
			</linearGradient>
			<path d="m19.7-33.6c-0.233-0.3-0.517-0.483-0.85-0.55s-0.583-0.017-0.75 0.15c-0.2 0.167-0.283 0.417-0.25 0.75s0.183 0.633 0.45 0.9 0.55 0.45 0.85 0.55c0.3 0.066 0.55 0.017 0.75-0.15s0.283-0.417 0.25-0.75-0.183-0.633-0.45-0.9z" fill="url(#aa)"/>
				<linearGradient id="ab" x1="-3345.3" x2="-3328.2" y1="-7549.4" y2="-7549.4" gradientTransform="matrix(.7447 -.6674 .6674 .7447 7539.5 3368.2)" gradientUnits="userSpaceOnUse">
				<stop stop-color="#852800" offset="0"/>
				<stop stop-color="#6B1900" offset="1"/>
			</linearGradient>
			<path d="m22.3-32.1c-0.333-0.367-0.6-0.483-0.8-0.35-0.167 0.167-0.083 0.434 0.25 0.8s0.583 0.467 0.75 0.3c0.167-0.133 0.1-0.383-0.2-0.75z" fill="url(#ab)"/>
				<linearGradient id="ac" x1="-3342.9" x2="-3325.7" y1="-7513.5" y2="-7513.5" gradientTransform="matrix(.7473 -.6645 .6645 .7473 7494.4 3365.7)" gradientUnits="userSpaceOnUse">
				<stop stop-color="#852800" offset="0"/>
				<stop stop-color="#6B1900" offset="1"/>
			</linearGradient>
			<path d="m15-37.8c-0.2-0.233-0.433-0.367-0.7-0.4s-0.483 0.034-0.65 0.2c-0.167 0.167-0.25 0.383-0.25 0.65s0.1 0.5 0.3 0.7c0.2 0.233 0.433 0.367 0.7 0.4 0.267 0.067 0.483 0.017 0.65-0.15 0.433-0.433 0.417-0.9-0.05-1.4z" fill="url(#ac)"/>
				<linearGradient id="ad" x1="-3344.8" x2="-3327.6" y1="-7545.7" y2="-7545.7" gradientTransform="matrix(.7453 -.6667 .6667 .7453 7528.3 3367.6)" gradientUnits="userSpaceOnUse">
				<stop stop-color="#852800" offset="0"/>
				<stop stop-color="#6B1900" offset="1"/>
			</linearGradient>
			<path d="m17.1-37.6c-0.367-0.367-0.667-0.45-0.9-0.25-0.233 0.233-0.184 0.533 0.15 0.9 0.367 0.4 0.667 0.483 0.9 0.25 0.267-0.2 0.217-0.5-0.15-0.9z" fill="url(#ad)"/>
				<linearGradient id="ae" x1="-3345.3" x2="-3328.2" y1="-7551.8" y2="-7551.8" gradientTransform="matrix(.7447 -.6674 .6674 .7447 7539.5 3368.2)" gradientUnits="userSpaceOnUse">
				<stop stop-color="#852800" offset="0"/>
				<stop stop-color="#6B1900" offset="1"/>
			</linearGradient>
			<path d="m17.2-30.9c-0.167-0.2-0.383-0.317-0.65-0.35-0.267 0-0.483 0.083-0.65 0.25-0.167 0.133-0.25 0.333-0.25 0.6s0.083 0.5 0.25 0.7c0.4 0.4 0.833 0.434 1.3 0.1 0.4-0.4 0.4-0.833 0-1.3z" fill="url(#ae)"/>
				<linearGradient id="af" x1="-3345.4" x2="-3328.2" y1="-7550.9" y2="-7550.9" gradientTransform="matrix(.7447 -.6674 .6674 .7447 7539.5 3368.2)" gradientUnits="userSpaceOnUse">
				<stop stop-color="#852800" offset="0"/>
				<stop stop-color="#6B1900" offset="1"/>
			</linearGradient>
			<path d="m10.55-23.7c-0.433-0.433-0.783-0.517-1.05-0.25s-0.233 0.633 0.1 1.1c0.433 0.4 0.783 0.467 1.05 0.2 0.167-0.1 0.233-0.25 0.2-0.45-0.033-0.233-0.133-0.433-0.3-0.6z" fill="url(#af)"/>
				<linearGradient id="ag" x1="-3344.8" x2="-3327.6" y1="-7542.8" y2="-7542.8" gradientTransform="matrix(.7453 -.6667 .6667 .7453 7528.3 3367.6)" gradientUnits="userSpaceOnUse">
				<stop stop-color="#852800" offset="0"/>
				<stop stop-color="#6B1900" offset="1"/>
			</linearGradient>
			<path d="m7.5-25c-0.233-0.267-0.45-0.333-0.65-0.2-0.167 0.167-0.133 0.383 0.1 0.65 0.3 0.267 0.517 0.333 0.65 0.2 0.167-0.167 0.133-0.383-0.1-0.65z" fill="url(#ag)"/>
				<linearGradient id="ah" x1="-3345.4" x2="-3328.2" y1="-7548.1" y2="-7548.1" gradientTransform="matrix(.7447 -.6674 .6674 .7447 7539.5 3368.2)" gradientUnits="userSpaceOnUse">
				<stop stop-color="#852800" offset="0"/>
				<stop stop-color="#6B1900" offset="1"/>
			</linearGradient>
			<path d="m11.15-20.5c-0.2-0.2-0.35-0.25-0.45-0.15-0.133 0.133-0.1 0.3 0.1 0.5 0.167 0.167 0.317 0.217 0.45 0.15 0.1-0.1 0.067-0.267-0.1-0.5z" fill="url(#ah)"/>
				<linearGradient id="aj" x1="-3344.8" x2="-3327.6" y1="-7547.6" y2="-7547.6" gradientTransform="matrix(.7453 -.6667 .6667 .7453 7528.3 3367.6)" gradientUnits="userSpaceOnUse">
				<stop stop-color="#852800" offset="0"/>
				<stop stop-color="#6B1900" offset="1"/>
			</linearGradient>
			<path d="m4-28.4c-0.267-0.3-0.483-0.367-0.65-0.2-0.133 0.133-0.067 0.35 0.2 0.65s0.467 0.383 0.6 0.25c0.167-0.167 0.117-0.4-0.15-0.7z" fill="url(#aj)"/>
				<linearGradient id="ak" x1="-3345.4" x2="-3328.2" y1="-7560.7" y2="-7560.7" gradientTransform="matrix(.7447 -.6674 .6674 .7447 7539.5 3368.2)" gradientUnits="userSpaceOnUse">
				<stop stop-color="#852800" offset="0"/>
				<stop stop-color="#6B1900" offset="1"/>
			</linearGradient>
			<path d="m14.75-40.55c-0.433-0.434-0.767-0.534-1-0.3-0.267 0.267-0.2 0.6 0.2 1 0.367 0.434 0.7 0.533 1 0.3 0.233-0.233 0.167-0.567-0.2-1z" fill="url(#ak)"/>
				<linearGradient id="al" x1="-3339.5" x2="-3331.9" y1="-7506.7" y2="-7506.7" gradientTransform="matrix(.7454 -.6666 .6666 .7454 7526.6 3367.5)" gradientUnits="userSpaceOnUse">
				<stop stop-color="#F2B557" offset="0"/>
				<stop stop-color="#A16B1A" offset="1"/>
			</linearGradient>
			<path d="m32.85-3.65l2.15 3.5 5.7-5.05-3.45-2.75c-0.733 0.034-1.65 0.567-2.75 1.6-0.9 0.867-1.45 1.567-1.65 2.1v0.6z" fill="url(#al)"/>
				<linearGradient id="am" x1="16575" x2="16582" y1="-16056" y2="-16056" gradientTransform="matrix(-.9994 .034 -.034 -.9994 16062 -16613)" gradientUnits="userSpaceOnUse">
				<stop stop-color="#F2B557" offset="0"/>
				<stop stop-color="#A16B1A" offset="1"/>
			</linearGradient>
			<path d="m40.3-4c0.4-0.633 0.517-1.067 0.35-1.3-0.2-0.2-0.65-0.133-1.35 0.2-0.7 0.367-1.45 0.9-2.25 1.6-0.8 0.733-1.4 1.417-1.8 2.05-0.433 0.667-0.55 1.1-0.35 1.3 0.167 0.233 0.6 0.167 1.3-0.2 0.7-0.333 1.45-0.867 2.25-1.6 0.8-0.7 1.417-1.383 1.85-2.05z" fill="url(#am)"/>
		</g>
</symbol>
<use transform="scale(1 -1)" x="-0.002" y="-43.3" width="40.725" height="43.286" xlink:href="#av"/>
</svg>